<?xml version="1.0" encoding="UTF-8" standalone="no"?>
<!-- Created with Inkscape (http://www.inkscape.org/) -->

<svg
   xmlns:dc="http://purl.org/dc/elements/1.1/"
   xmlns:cc="http://creativecommons.org/ns#"
   xmlns:rdf="http://www.w3.org/1999/02/22-rdf-syntax-ns#"
   xmlns:svg="http://www.w3.org/2000/svg"
   xmlns="http://www.w3.org/2000/svg"
   xmlns:xlink="http://www.w3.org/1999/xlink"
   xmlns:sodipodi="http://sodipodi.sourceforge.net/DTD/sodipodi-0.dtd"
   xmlns:inkscape="http://www.inkscape.org/namespaces/inkscape"
   width="338.66666mm"
   height="169.33333mm"
   viewBox="0 0 338.66666 169.33333"
   version="1.1"
   id="svg8"
   inkscape:version="0.92.4 (5da689c313, 2019-01-14)"
   sodipodi:docname="skriptinsight-banner.svg"
   inkscape:export-filename="C:\Users\NickAc\skriptinsight-banner.png"
   inkscape:export-xdpi="192"
   inkscape:export-ydpi="192">
  <defs
     id="defs2">
    <linearGradient
       inkscape:collect="always"
       id="linearGradient3735">
      <stop
         style="stop-color:#00b4ff;stop-opacity:1"
         offset="0"
         id="stop3731" />
      <stop
         id="stop4544"
         offset="0.08706858"
         style="stop-color:#00a8ff;stop-opacity:1" />
      <stop
         style="stop-color:#009bff;stop-opacity:1"
         offset="0.18061292"
         id="stop4546" />
      <stop
         id="stop4548"
         offset="0.29420248"
         style="stop-color:#008cff;stop-opacity:1" />
      <stop
         style="stop-color:#007dff;stop-opacity:1"
         offset="0.40177846"
         id="stop4550" />
      <stop
         id="stop4552"
         offset="0.48195931"
         style="stop-color:#0079ff;stop-opacity:1" />
      <stop
         style="stop-color:#0076ff;stop-opacity:1"
         offset="0.561472"
         id="stop4554" />
      <stop
         id="stop4556"
         offset="0.63630748"
         style="stop-color:#0072ff;stop-opacity:1" />
      <stop
         style="stop-color:#007aff;stop-opacity:1"
         offset="0.71849287"
         id="stop4558" />
      <stop
         id="stop4560"
         offset="0.79733735"
         style="stop-color:#0082ff;stop-opacity:1" />
      <stop
         style="stop-color:#0089ff;stop-opacity:1"
         offset="0.88620448"
         id="stop4562" />
      <stop
         style="stop-color:#0090ff;stop-opacity:1"
         offset="1"
         id="stop3733" />
    </linearGradient>
    <linearGradient
       inkscape:collect="always"
       xlink:href="#linearGradient3735"
       id="linearGradient3737"
       x1="0"
       y1="197"
       x2="100"
       y2="297"
       gradientUnits="userSpaceOnUse"
       gradientTransform="matrix(3.3866668,0,0,1.6933333,-112.27127,-166.71585)" />
    <clipPath
       clipPathUnits="userSpaceOnUse"
       id="clipPath4650">
      <path
         inkscape:connector-curvature="0"
         id="path4652"
         d="m 98.66778,293.87079 v 3.57187 h 19.7776 v -3.57187 z m -103.8489585,0.0661 v 3.04271 H 33.58028 v -3.04271 z m 42.2010415,0.13229 v 3.10886 h 52.137591 v -3.10886 z"
         style="opacity:1;fill:#000000;fill-opacity:1;stroke:none;stroke-width:1;stroke-linecap:square;stroke-linejoin:round;stroke-miterlimit:4;stroke-dasharray:none;stroke-opacity:1"
         sodipodi:nodetypes="ccccccccccccccc" />
    </clipPath>
  </defs>
  <sodipodi:namedview
     id="base"
     pagecolor="#ffffff"
     bordercolor="#666666"
     borderopacity="1.0"
     inkscape:pageopacity="0.0"
     inkscape:pageshadow="2"
     inkscape:zoom="0.7071068"
     inkscape:cx="496.31676"
     inkscape:cy="395.5225"
     inkscape:document-units="mm"
     inkscape:current-layer="layer1"
     showgrid="false"
     showguides="true"
     inkscape:guide-bbox="true"
     inkscape:window-width="1920"
     inkscape:window-height="1017"
     inkscape:window-x="1912"
     inkscape:window-y="-8"
     inkscape:window-maximized="1"
     showborder="true"
     inkscape:showpageshadow="false"
     fit-margin-top="0"
     fit-margin-left="0"
     fit-margin-right="0"
     fit-margin-bottom="0">
    <sodipodi:guide
       position="318.02915,148.92257"
       orientation="-377.95276,0"
       id="guide6380"
       inkscape:locked="false" />
    <sodipodi:guide
       position="20.205575,148.92257"
       orientation="1,0"
       id="guide860"
       inkscape:locked="false" />
    <sodipodi:guide
       position="20.205575,148.92257"
       orientation="0,1"
       id="guide862"
       inkscape:locked="false" />
    <sodipodi:guide
       position="20.205575,20.108332"
       orientation="1,0"
       id="guide866"
       inkscape:locked="false" />
    <sodipodi:guide
       position="20.205575,20.108332"
       orientation="0,1"
       id="guide868"
       inkscape:locked="false" />
    <sodipodi:guide
       position="0,0"
       orientation="0,1280"
       id="guide870"
       inkscape:locked="false" />
    <sodipodi:guide
       position="338.66665,0"
       orientation="-639.99998,0"
       id="guide872"
       inkscape:locked="false" />
    <sodipodi:guide
       position="338.66665,169.33332"
       orientation="0,-1280"
       id="guide874"
       inkscape:locked="false" />
    <sodipodi:guide
       position="0,169.33332"
       orientation="639.99998,0"
       id="guide876"
       inkscape:locked="false" />
  </sodipodi:namedview>
  <metadata
     id="metadata5">
    <rdf:RDF>
      <cc:Work
         rdf:about="">
        <dc:format>image/svg+xml</dc:format>
        <dc:type
           rdf:resource="http://purl.org/dc/dcmitype/StillImage" />
        <dc:title />
      </cc:Work>
    </rdf:RDF>
  </metadata>
  <g
     inkscape:label="Layer 1"
     inkscape:groupmode="layer"
     id="layer1"
     transform="translate(112.27128,-166.87079)">
    <rect
       id="rect3729"
       width="338.66666"
       height="169.3333"
       x="-112.27128"
       y="166.8708"
       style="fill:url(#linearGradient3737);fill-opacity:1;stroke-width:0.63360685" />
    <g
       id="g4607"
       transform="matrix(1.6615113,0,0,1.6615113,-29.89167,-157.18541)">
      <text
         id="text4566"
         y="252.40718"
         x="26.324091"
         style="font-style:normal;font-variant:normal;font-weight:normal;font-stretch:normal;font-size:42.13380432px;line-height:1.25;font-family:'Fira Code';-inkscape-font-specification:'Fira Code';letter-spacing:0px;word-spacing:0px;fill:#ffffff;fill-opacity:1;stroke:none;stroke-width:1.0533452"
         xml:space="preserve"><tspan
           style="font-style:normal;font-variant:normal;font-weight:normal;font-stretch:normal;font-family:'Fira Code';-inkscape-font-specification:'Fira Code';letter-spacing:0.05585015px;word-spacing:-0.07679396px;fill:#ffffff;stroke-width:1.0533452"
           y="252.40718"
           x="26.324091"
           id="tspan4564"
           sodipodi:role="line"><tspan
             dy="-0.62006867 0 0"
             id="tspan4570"
             style="font-style:normal;font-variant:normal;font-weight:bold;font-stretch:normal;font-family:'Fira Code';-inkscape-font-specification:'Fira Code Bold';letter-spacing:0.05585015px;word-spacing:-0.07679396px;fill:#ffffff;stroke-width:1.0533452"
             dx="0 0.02 -0.019999981">S<tspan
   style="letter-spacing:-0.00264583px;word-spacing:-21.16666603px"
   id="tspan4609"
   dy="0"
   rotate="0 0"
   dx="0"> </tspan>I</tspan><tspan
             id="tspan4576"
             style="font-style:normal;font-variant:normal;font-weight:500;font-stretch:normal;font-size:22.12070465px;font-family:'Fira Code';-inkscape-font-specification:'Fira Code Medium';letter-spacing:0.05585015px;word-spacing:-0.07679396px;stroke-width:1.0533452" /></tspan><tspan
           id="tspan4568"
           style="font-style:normal;font-variant:normal;font-weight:normal;font-stretch:normal;font-family:'Fira Code';-inkscape-font-specification:'Fira Code';letter-spacing:0.05585015px;word-spacing:-0.07679396px;fill:#ffffff;stroke-width:1.0533452"
           y="305.07443"
           x="26.324091"
           sodipodi:role="line" /></text>
      <path
         sodipodi:type="inkscape:offset"
         inkscape:radius="0.32738221"
         inkscape:original="M 13.689453 -0.27539062 L 10.802734 2.4726562 L 9.4589844 1.1582031 L 9.4550781 1.1523438 L 8.1367188 -0.25585938 L 7.6171875 -0.26953125 L 4.7480469 2.4980469 L 3.3476562 1.1757812 L 2.8105469 1.671875 L 4.5 3.2695312 L 5.0058594 3.265625 L 7.8574219 0.515625 L 8.9023438 1.6328125 L 8.9257812 1.65625 L 10.554688 3.2441406 L 11.058594 3.2402344 L 13.929688 0.50976562 L 15.015625 1.671875 L 16.705078 3.2695312 L 17.208984 3.265625 L 20.0625 0.515625 L 21.128906 1.65625 L 22.833984 3.2675781 L 23.337891 3.2636719 L 26.208984 0.53320312 L 27.271484 1.671875 L 28.960938 3.2695312 L 29.464844 3.265625 L 32.318359 0.515625 L 33.361328 1.6328125 L 33.384766 1.65625 L 35.015625 3.2441406 L 35.519531 3.2402344 L 38.390625 0.50976562 L 39.476562 1.671875 L 41.166016 3.2695312 L 41.669922 3.265625 L 44.523438 0.515625 L 45.589844 1.65625 L 47.298828 3.2675781 L 47.802734 3.2636719 L 50.673828 0.53320312 L 51.736328 1.671875 L 53.425781 3.2695312 L 53.931641 3.265625 L 56.783203 0.515625 L 57.828125 1.6328125 L 57.851562 1.65625 L 59.480469 3.2441406 L 59.984375 3.2402344 L 62.855469 0.50976562 L 63.941406 1.671875 L 65.630859 3.2695312 L 66.134766 3.265625 L 68.988281 0.515625 L 70.054688 1.65625 L 70.589844 1.1582031 L 69.267578 -0.25585938 L 68.748047 -0.26953125 L 65.878906 2.4980469 L 64.478516 1.1757812 L 64.480469 1.1738281 L 63.134766 -0.26171875 L 62.615234 -0.27539062 L 59.728516 2.4726562 L 58.384766 1.1582031 L 58.380859 1.1523438 L 57.0625 -0.25585938 L 56.542969 -0.26953125 L 53.673828 2.4980469 L 52.275391 1.1757812 L 50.953125 -0.23828125 L 50.433594 -0.25195312 L 47.546875 2.4960938 L 46.111328 1.140625 L 44.802734 -0.25585938 L 44.283203 -0.26953125 L 41.414062 2.4980469 L 40.013672 1.1757812 L 40.013672 1.1738281 L 38.669922 -0.26171875 L 38.150391 -0.27539062 L 35.263672 2.4726562 L 33.919922 1.1582031 L 33.916016 1.1523438 L 32.597656 -0.25585938 L 32.078125 -0.26953125 L 29.208984 2.4980469 L 27.810547 1.1757812 L 26.488281 -0.23828125 L 25.96875 -0.25195312 L 23.082031 2.4960938 L 21.664062 1.1582031 L 20.341797 -0.25585938 L 19.822266 -0.26953125 L 16.953125 2.4980469 L 15.552734 1.1757812 L 15.554688 1.1738281 L 14.208984 -0.26171875 L 13.689453 -0.27539062 z "
         style="color:#000000;font-style:normal;font-variant:normal;font-weight:normal;font-stretch:normal;font-size:medium;line-height:normal;font-family:sans-serif;font-variant-ligatures:normal;font-variant-position:normal;font-variant-caps:normal;font-variant-numeric:normal;font-variant-alternates:normal;font-feature-settings:normal;text-indent:0;text-align:start;text-decoration:none;text-decoration-line:none;text-decoration-style:solid;text-decoration-color:#000000;letter-spacing:normal;word-spacing:normal;text-transform:none;writing-mode:lr-tb;direction:ltr;text-orientation:mixed;dominant-baseline:auto;baseline-shift:baseline;text-anchor:start;white-space:normal;shape-padding:0;clip-rule:nonzero;display:inline;overflow:visible;visibility:visible;opacity:1;isolation:auto;mix-blend-mode:normal;color-interpolation:sRGB;color-interpolation-filters:linearRGB;solid-color:#000000;solid-opacity:1;vector-effect:none;fill:#ffffff;fill-opacity:1;fill-rule:nonzero;stroke:none;stroke-width:0.73053432;stroke-linecap:butt;stroke-linejoin:bevel;stroke-miterlimit:4;stroke-dasharray:none;stroke-dashoffset:0;stroke-opacity:1;color-rendering:auto;image-rendering:auto;shape-rendering:auto;text-rendering:auto;enable-background:accumulate"
         id="path6317"
         d="m 13.697266,-0.60351562 a 0.32741495,0.32741495 0 0 0 -0.234375,0.0917969 L 10.806641,2.0175781 9.7128906,0.94726562 9.7265625,0.97070312 A 0.32741495,0.32741495 0 0 0 9.6933594,0.92773438 L 8.375,-0.48046875 A 0.32741495,0.32741495 0 0 0 8.1445312,-0.58398438 L 7.625,-0.59765625 a 0.32741495,0.32741495 0 0 0 -0.234375,0.0917969 L 4.7460938,2.0449219 3.5722656,0.9375 A 0.32741495,0.32741495 0 0 0 3.125,0.93554688 L 2.5878906,1.4316406 a 0.32741495,0.32741495 0 0 0 -0.00195,0.4785156 l 1.6894531,1.5976563 a 0.32741495,0.32741495 0 0 0 0.2265625,0.089844 L 5.0078125,3.59375 A 0.32741495,0.32741495 0 0 0 5.2324219,3.5019531 L 7.8457031,0.98046875 8.6640625,1.8554688 a 0.32741495,0.32741495 0 0 0 0.00586,0.00977 l 0.023437,0.023437 a 0.32741495,0.32741495 0 0 0 0.00391,0.00195 l 1.6289064,1.5878906 a 0.32741495,0.32741495 0 0 0 0.230469,0.09375 l 0.503906,-0.00391 a 0.32741495,0.32741495 0 0 0 0.224609,-0.091797 l 2.63086,-2.50195312 0.861328,0.91992182 a 0.32741495,0.32741495 0 0 0 0.01367,0.015625 l 1.689453,1.5976563 a 0.32741495,0.32741495 0 0 0 0.226562,0.089844 l 0.503907,-0.00391 a 0.32741495,0.32741495 0 0 0 0.224609,-0.091797 l 2.615234,-2.52148435 0.839844,0.89843745 a 0.32741495,0.32741495 0 0 0 0.01367,0.015625 l 1.705078,1.6113282 a 0.32741495,0.32741495 0 0 0 0.226563,0.089844 l 0.503906,-0.00391 A 0.32741495,0.32741495 0 0 0 23.564453,3.5 L 26.195312,0.99804688 27.03125,1.8945312 a 0.32741495,0.32741495 0 0 0 0.01563,0.015625 l 1.689453,1.5976563 a 0.32741495,0.32741495 0 0 0 0.226563,0.089844 l 0.503906,-0.00391 a 0.32741495,0.32741495 0 0 0 0.224609,-0.091797 l 2.615235,-2.51953122 0.814453,0.87304692 a 0.32741495,0.32741495 0 0 0 0.0078,0.00977 l 0.02344,0.023437 a 0.32741495,0.32741495 0 0 0 0.0039,0.00195 l 1.630859,1.5878906 a 0.32741495,0.32741495 0 0 0 0.230469,0.09375 l 0.503906,-0.00391 a 0.32741495,0.32741495 0 0 0 0.22461,-0.091797 l 2.630859,-2.50195312 0.861328,0.91992182 a 0.32741495,0.32741495 0 0 0 0.01367,0.015625 l 1.689453,1.5976563 a 0.32741495,0.32741495 0 0 0 0.226563,0.089844 l 0.503906,-0.00391 a 0.32741495,0.32741495 0 0 0 0.224609,-0.091797 l 2.615235,-2.52148435 0.839843,0.89843745 a 0.32741495,0.32741495 0 0 0 0.01367,0.015625 l 1.708985,1.6113282 a 0.32741495,0.32741495 0 0 0 0.226562,0.089844 l 0.503907,-0.00391 A 0.32741495,0.32741495 0 0 0 48.029297,3.5 l 2.630859,-2.50195312 0.835938,0.89648432 a 0.32741495,0.32741495 0 0 0 0.01563,0.015625 l 1.689453,1.5976563 a 0.32741495,0.32741495 0 0 0 0.226562,0.089844 l 0.50586,-0.00391 a 0.32741495,0.32741495 0 0 0 0.224609,-0.091797 l 2.613281,-2.52148435 0.81836,0.87500005 a 0.32741495,0.32741495 0 0 0 0.0059,0.00977 l 0.02344,0.023437 a 0.32741495,0.32741495 0 0 0 0.0039,0.00195 l 1.628906,1.5878906 a 0.32741495,0.32741495 0 0 0 0.230469,0.09375 l 0.503906,-0.00391 a 0.32741495,0.32741495 0 0 0 0.22461,-0.091797 l 2.630859,-2.50195312 0.861328,0.91992182 a 0.32741495,0.32741495 0 0 0 0.01367,0.015625 l 1.689453,1.5976563 a 0.32741495,0.32741495 0 0 0 0.226562,0.089844 l 0.503907,-0.00391 a 0.32741495,0.32741495 0 0 0 0.224609,-0.091797 l 2.615234,-2.52148435 0.839844,0.89843745 a 0.32741495,0.32741495 0 0 0 0.460938,0.017578 L 70.8125,1.3984375 a 0.32741495,0.32741495 0 0 0 0.01563,-0.46289062 l -1.322266,-1.4140625 a 0.32741495,0.32741495 0 0 0 -0.230468,-0.10546876 l -0.519532,-0.0136719 a 0.32741495,0.32741495 0 0 0 -0.234375,0.0917969 L 65.876953,2.0449219 64.736328,0.96875 a 0.32741495,0.32741495 0 0 0 -0.01758,-0.0195313 l -1.345703,-1.43554687 a 0.32741495,0.32741495 0 0 0 -0.230469,-0.10351563 l -0.519531,-0.0136719 a 0.32741495,0.32741495 0 0 0 -0.234375,0.0917969 l -2.65625,2.52929685 -1.09375,-1.07031248 0.01367,0.0234375 a 0.32741495,0.32741495 0 0 0 -0.0332,-0.0429687 l -1.31836,-1.40820313 a 0.32741495,0.32741495 0 0 0 -0.230469,-0.10351563 l -0.519531,-0.0136719 a 0.32741495,0.32741495 0 0 0 -0.234375,0.0917969 l -2.644531,2.55078128 -1.164063,-1.0996094 -1.316406,-1.40625 a 0.32741495,0.32741495 0 0 0 -0.230468,-0.10546875 l -0.519532,-0.0136719 a 0.32741495,0.32741495 0 0 0 -0.234375,0.0917969 L 47.546875,2.0449219 46.34375,0.91015625 l -1.302734,-1.390625 a 0.32741495,0.32741495 0 0 0 -0.230469,-0.10351563 l -0.519531,-0.0136719 a 0.32741495,0.32741495 0 0 0 -0.234375,0.0917969 L 41.412109,2.0449219 40.341797,1.0351562 v 0.1386719 a 0.32741495,0.32741495 0 0 0 -0.08984,-0.22460935 l -1.34375,-1.43554687 a 0.32741495,0.32741495 0 0 0 -0.230469,-0.10351563 l -0.519531,-0.0136719 a 0.32741495,0.32741495 0 0 0 -0.234375,0.0917969 l -2.65625,2.52929685 -1.09375,-1.07031248 0.01367,0.0234375 a 0.32741495,0.32741495 0 0 0 -0.0332,-0.0429687 l -1.318359,-1.40820313 a 0.32741495,0.32741495 0 0 0 -0.230469,-0.10351563 l -0.519531,-0.0136719 a 0.32741495,0.32741495 0 0 0 -0.234376,0.0917969 l -2.644531,2.55078128 -1.164062,-1.0996094 -1.316407,-1.40625 a 0.32741495,0.32741495 0 0 0 -0.230468,-0.10546875 l -0.519532,-0.0136719 a 0.32741495,0.32741495 0 0 0 -0.234374,0.0917969 l -2.66211,2.53320315 -1.183594,-1.11718752 -1.316406,-1.40625 a 0.32741495,0.32741495 0 0 0 -0.230469,-0.10546876 l -0.519531,-0.0136719 a 0.32741495,0.32741495 0 0 0 -0.234375,0.0917969 L 16.951172,2.0449219 15.810547,0.96875 a 0.32741495,0.32741495 0 0 0 -0.01758,-0.0195313 l -1.345703,-1.43554687 a 0.32741495,0.32741495 0 0 0 -0.230469,-0.10351563 z"
         transform="matrix(0.93626452,0,0,0.91029266,19.565908,255.17381)" />
    </g>
    <g
       id="g6281"
       transform="matrix(0.91029266,0,0,0.91029266,16.592051,268.02576)"
       style="fill:#ffffff;fill-opacity:1" />
    <g
       style="fill:#4d9e4d;fill-opacity:1"
       transform="matrix(0.91029266,0,0,0.91029266,29.601999,264.98305)"
       id="g6341" />
    <g
       id="g4671"
       transform="translate(0,8.9802557)">
      <text
         id="text888"
         y="293.67227"
         x="-4.2641006"
         style="font-style:normal;font-variant:normal;font-weight:normal;font-stretch:normal;font-size:15.60068512px;line-height:1.25;font-family:'Fira Code';-inkscape-font-specification:'Fira Code';letter-spacing:0px;word-spacing:0px;fill:#ffffff;fill-opacity:1;stroke:none;stroke-width:0.39001715"
         xml:space="preserve"><tspan
           style="font-style:normal;font-variant:normal;font-weight:500;font-stretch:normal;font-family:'Fira Code';-inkscape-font-specification:'Fira Code Medium';letter-spacing:0.02067937px;word-spacing:-0.02843414px;fill:#ffffff;stroke-width:0.39001715"
           y="293.67227"
           x="-4.2641006"
           id="tspan884"
           sodipodi:role="line"><tspan
             dy="-0.22958991 0 0 0 0 0 0"
             id="tspan880"
             style="font-style:normal;font-variant:normal;font-weight:500;font-stretch:normal;font-family:'Fira Code';-inkscape-font-specification:'Fira Code Medium';letter-spacing:0.02067937px;word-spacing:-0.02843414px;fill:#ffffff;stroke-width:0.39001715"
             dx="0 0 0 0 0 0 -0.0074052988">S<tspan
   style="font-style:normal;font-variant:normal;font-weight:500;font-stretch:normal;font-family:'Fira Code';-inkscape-font-specification:'Fira Code Medium';letter-spacing:-0.00097966px;word-spacing:-7.8372817px;stroke-width:0.39001715"
   id="tspan878"
   rotate="0 0 0 0 0 0">kript</tspan>Insight</tspan></tspan><tspan
           id="tspan886"
           style="font-style:normal;font-variant:normal;font-weight:500;font-stretch:normal;font-family:'Fira Code';-inkscape-font-specification:'Fira Code Medium';letter-spacing:0.02067937px;word-spacing:-0.02843414px;fill:#ffffff;stroke-width:0.39001715"
           y="313.17313"
           x="-4.2641006"
           sodipodi:role="line" /></text>
      <text
         xml:space="preserve"
         style="font-style:normal;font-variant:normal;font-weight:normal;font-stretch:normal;font-size:9.52267838px;line-height:1.25;font-family:'Fira Code';-inkscape-font-specification:'Fira Code';letter-spacing:0px;word-spacing:0px;fill:#ffffff;fill-opacity:1;stroke:none;stroke-width:0.23806696"
         x="56.893539"
         y="305.19983"
         id="text898"><tspan
           sodipodi:role="line"
           x="56.899849"
           y="305.19983"
           style="font-style:normal;font-variant:normal;font-weight:normal;font-stretch:normal;font-family:'Fira Code';-inkscape-font-specification:'Fira Code';text-align:center;letter-spacing:0.01262272px;word-spacing:-0.01735623px;text-anchor:middle;fill:#ffffff;stroke-width:0.23806696"
           id="tspan896">Power tools for Skript</tspan></text>
      <path
         transform="translate(0.26458332)"
         clip-path="url(#clipPath4650)"
         inkscape:connector-curvature="0"
         id="path4618"
         d="M -4.6520132,295.326 H 117.12246"
         style="fill:none;stroke:#ffffff;stroke-width:1.29999995;stroke-linecap:butt;stroke-linejoin:miter;stroke-miterlimit:4;stroke-dasharray:none;stroke-opacity:1" />
    </g>
  </g>
</svg>
