<?xml version="1.0" encoding="UTF-8" standalone="no"?>
<svg
   xmlns:dc="http://purl.org/dc/elements/1.1/"
   xmlns:cc="http://creativecommons.org/ns#"
   xmlns:rdf="http://www.w3.org/1999/02/22-rdf-syntax-ns#"
   xmlns:svg="http://www.w3.org/2000/svg"
   xmlns="http://www.w3.org/2000/svg"
   xmlns:xlink="http://www.w3.org/1999/xlink"
   xmlns:sodipodi="http://sodipodi.sourceforge.net/DTD/sodipodi-0.dtd"
   xmlns:inkscape="http://www.inkscape.org/namespaces/inkscape"
   inkscape:export-ydpi="65.024002"
   inkscape:export-xdpi="65.024002"
   inkscape:export-filename="C:\Users\NickAc\Downloads\vscode.png"
   sodipodi:docname="vscode.svg"
   inkscape:version="1.0beta1 (fe3e306, 2019-09-17)"
   id="svg8"
   version="1.1"
   viewBox="0 0 200 200"
   height="200mm"
   width="200mm">
  <title
     id="title1546">Unknown</title>
  <defs
     id="defs2">
    <inkscape:path-effect
       effect="circle_3pts"
       id="path-effect2255"
       is_visible="true" />
    <linearGradient
       inkscape:collect="always"
       id="linearGradient2208">
      <stop
         style="stop-color:#208bd2;stop-opacity:1;"
         offset="0"
         id="stop2204" />
      <stop
         style="stop-color:#208bd2;stop-opacity:0;"
         offset="1"
         id="stop2206" />
    </linearGradient>
    <linearGradient
       id="linearGradient903"
       inkscape:collect="always">
      <stop
         id="stop899"
         offset="0"
         style="stop-color:#000000;stop-opacity:0.3935743" />
      <stop
         id="stop901"
         offset="1"
         style="stop-color:#208bd2;stop-opacity:0" />
    </linearGradient>
    <linearGradient
       gradientUnits="userSpaceOnUse"
       y2="84.297775"
       x2="84.684998"
       y1="102.75388"
       x1="73.241463"
       id="linearGradient905"
       xlink:href="#linearGradient903"
       inkscape:collect="always" />
    <linearGradient
       gradientTransform="matrix(3.5330907,-1.3424227,0,3.7795276,0,0)"
       y2="84.62487"
       x2="69.244255"
       y1="94.497414"
       x1="63.031864"
       gradientUnits="userSpaceOnUse"
       id="linearGradient940"
       xlink:href="#linearGradient903"
       inkscape:collect="always" />
    <linearGradient
       inkscape:collect="always"
       xlink:href="#linearGradient2208"
       id="linearGradient2210"
       x1="62.798918"
       y1="102.16629"
       x2="139.0019"
       y2="102.16629"
       gradientUnits="userSpaceOnUse" />
    <filter
       height="1.5514661"
       y="-0.27573307"
       width="1.4546545"
       x="-0.22732723"
       id="filter1339"
       style="color-interpolation-filters:sRGB"
       inkscape:collect="always">
      <feGaussianBlur
         id="feGaussianBlur1341"
         stdDeviation="14.353917"
         inkscape:collect="always" />
    </filter>
    <filter
       height="1.3840132"
       y="-0.1920066"
       width="2.4334646"
       x="-0.71673228"
       id="filter1795"
       style="color-interpolation-filters:sRGB"
       inkscape:collect="always">
      <feGaussianBlur
         id="feGaussianBlur1797"
         stdDeviation="42.220011"
         inkscape:collect="always" />
    </filter>
  </defs>
  <sodipodi:namedview
     inkscape:window-maximized="1"
     inkscape:window-y="-8"
     inkscape:window-x="1912"
     inkscape:window-height="1017"
     inkscape:window-width="1920"
     inkscape:guide-bbox="true"
     showguides="false"
     showgrid="false"
     inkscape:document-rotation="0"
     inkscape:current-layer="layer1"
     inkscape:document-units="mm"
     inkscape:cy="386.60454"
     inkscape:cx="536.45595"
     inkscape:zoom="0.98994949"
     inkscape:pageshadow="2"
     inkscape:pageopacity="0.0"
     borderopacity="1.0"
     bordercolor="#666666"
     pagecolor="#ffffff"
     id="base">
    <sodipodi:guide
       id="guide861"
       orientation="0,755.90551"
       position="0,200" />
    <sodipodi:guide
       id="guide863"
       orientation="755.90551,0"
       position="200,200" />
    <sodipodi:guide
       id="guide865"
       orientation="0,-755.90551"
       position="200,0" />
    <sodipodi:guide
       id="guide867"
       orientation="-755.90551,0"
       position="0,0" />
    <sodipodi:guide
       position="43.65625,137.25595"
       orientation="0.60438644,0.7966913"
       id="guide2227" />
    <sodipodi:guide
       position="38.742559,134.84635"
       orientation="0.69278466,-0.72114451"
       id="guide2229" />
    <sodipodi:guide
       position="26.85567,123.42693"
       orientation="0.6749095,0.73790051"
       id="guide2231" />
    <sodipodi:guide
       position="135.36089,67.68692"
       orientation="1,0"
       id="guide2233" />
    <sodipodi:guide
       position="135.36089,131.84627"
       orientation="0.59999994,-0.80000005"
       id="guide2235" />
    <sodipodi:guide
       position="26.714758,77.089346"
       orientation="0.70177035,0.71240324"
       id="guide2237" />
    <sodipodi:guide
       position="30.468726,79.862347"
       orientation="-0.67234952,0.74023383"
       id="guide2239" />
    <sodipodi:guide
       position="170.65625,152.94196"
       orientation="1,0"
       id="guide2241" />
    <sodipodi:guide
       position="170.65625,152.94196"
       orientation="-0.43412368,-0.90085328"
       id="guide2243" />
    <sodipodi:guide
       position="131.15283,28.033112"
       orientation="-0.43491034,0.90047376"
       id="guide2245" />
    <sodipodi:guide
       id="guide870"
       orientation="0,-1"
       position="128.97981,169.33932" />
    <sodipodi:guide
       id="guide872"
       orientation="0,-1"
       position="135.36089,164.84821" />
    <sodipodi:guide
       id="guide877"
       orientation="0,-1"
       position="135.36089,35.027884" />
    <sodipodi:guide
       id="guide879"
       orientation="0,-1"
       position="128.1764,30.755458" />
  </sodipodi:namedview>
  <metadata
     id="metadata5">
    <rdf:RDF>
      <cc:Work
         rdf:about="">
        <dc:format>image/svg+xml</dc:format>
        <dc:type
           rdf:resource="http://purl.org/dc/dcmitype/StillImage" />
        <dc:title>Unknown</dc:title>
      </cc:Work>
    </rdf:RDF>
  </metadata>
  <g
     sodipodi:insensitive="true"
     inkscape:label="Background"
     id="layer2"
     inkscape:groupmode="layer">
    <rect
       y="3.8146982e-06"
       x="0"
       height="200"
       width="200"
       id="rect889"
       style="opacity:1;fill:#100f10;fill-opacity:1;stroke:none;stroke-width:0.163;stroke-linecap:square;stroke-linejoin:round;stroke-miterlimit:4;stroke-dasharray:none;stroke-opacity:1" />
  </g>
  <g
     id="layer1"
     inkscape:groupmode="layer"
     inkscape:label="Layer 1">
    <path
       sodipodi:nodetypes="ccccccccc"
       inkscape:connector-curvature="0"
       id="path885"
       d="M 45.694744,135.40333 166.29241,44.955092 136.62997,30.660678 h -7.65016 L 30.468726,120.13765 c -2.639286,2.40543 -1.891368,4.59609 0.01293,6.48368 h -2e-6 l 8.900282,8.76744 c 1.393787,1.39379 4.635539,1.19574 6.312808,0.0146 z"
       style="fill:#208bd2" />
    <path
       transform="scale(0.26458333)"
       d="M 267.68164 315.52734 L 199.02539 377.88672 L 267.76367 440.46484 L 350.56641 378.36328 L 267.68164 315.52734 z "
       inkscape:transform-center-y="37.36828"
       inkscape:transform-center-x="-25.259125"
       style="opacity:0.25559105;fill:#000000;fill-opacity:1;stroke-width:0.616063;stroke-linecap:square;stroke-linejoin:round;filter:url(#filter1339)"
       id="path898" />
    <path
       id="rect2257"
       style="opacity:1;fill:#208bd2;fill-opacity:1;stroke-width:0.163;stroke-linecap:square;stroke-linejoin:round"
       inkscape:transform-center-x="-25.259125"
       inkscape:transform-center-y="37.36828"
       d="M 46.105972,64.744128 159.82584,150.95649 c 5.77067,4.37481 4.75819,4.9703 1.23026,6.63841 l -24.07103,11.38156 c -4.64101,2.19441 -6.09474,2.22717 -8.70403,-0.14829 L 31.237962,80.481592 c -2.49656,-2.272899 -2.15784,-5.976181 0.26641,-8.326052 l 6.65353,-6.449395 c 2.42425,-2.349872 5.25761,-3.001691 7.94807,-0.962017 z"
       inkscape:connector-curvature="0"
       sodipodi:nodetypes="sssssssss" />
    <path
       transform="scale(0.26458333)"
       d="M 490.48633 115.88281 C 495.2152 116.15891 502.00613 117.87374 506.73242 123.00781 C 508.98268 125.45221 510.75655 128.6669 511.59961 132.85742 L 511.59961 257.58789 L 628.32617 170.04297 C 627.15868 169.31819 625.95899 168.653 624.72266 168.08594 L 624.69336 168.07031 C 624.69336 168.07031 624.58849 168.01982 624.58789 168.01953 C 624.25354 167.86069 531.351 123.72552 524.24609 119.66602 L 524.22852 119.65625 L 516.39648 115.88281 L 490.48633 115.88281 z M 511.59961 500.44531 L 511.59961 612.3457 C 511.58551 613.52532 511.62539 614.63588 511.65039 615.66211 C 511.65039 615.66211 515.34581 642.03789 486.95117 639.9082 C 487.34707 640.2333 487.73732 640.54541 488.12305 640.83789 C 495.61468 643.10211 501.17787 643.85394 505.82812 643.55078 C 509.13821 642.52167 512.9862 640.89732 517.73828 638.65039 L 582.42773 608.06445 L 615.8125 591.94141 C 622.47123 587.69796 621.17716 583.51679 604.06641 570.54492 L 511.59961 500.44531 z "
       style="fill:#000000;fill-opacity:1;stroke-width:3.77953;opacity:0.54952077;filter:url(#filter1795)"
       id="path1343" />
    <path
       transform="scale(0.26458333)"
       sodipodi:nodetypes="cccccscccccccccccc"
       inkscape:connector-curvature="0"
       d="m 484.44531,639.66406 c 26.64276,9.02824 30.73058,0.96452 48.59766,-7.74804 l -0.0469,-0.0352 c 0.69017,-0.26542 1.36053,-0.56595 2,-0.9082 L 626.12303,586.9609 C 639.86923,580.32182 645,569.46724 645,554.0332 V 196.16016 c 0.0892,-10.17857 -8.78879,-22.82199 -20.30664,-28.08985 0,0 -93.42759,-44.38446 -100.46484,-48.41406 -0.78924,-0.46586 -1.51786,-0.81886 -2.22071,-1.125 -6.93746,-4.74127 -13.094,-6.73326 -18.94922,-6.76758 -0.39034,-0.002 -0.78016,0.005 -1.16797,0.0195 -4.89591,0.18779 -9.60351,1.7168 -14.4082,4.09961 4.32083,-0.38693 13.39752,0.76758 19.25,7.125 2.25026,2.4444 4.02413,5.65909 4.86719,9.84961 V 612.3457 c -0.0141,1.17962 0.0258,2.29116 0.0508,3.31739 0,0 3.92024,27.91532 -27.20508,24.00097 z"
       style="fill:#24a0f2;fill-opacity:1;stroke-width:3.77953"
       id="path2260" />
  </g>
  <g
     inkscape:groupmode="layer"
     id="layer5"
     inkscape:label="Layer 2"
     sodipodi:insensitive="true"
     style="display:none">
    <path
       id="rect2156"
       style="opacity:1;fill:#9a0300;fill-opacity:1;stroke-width:0.616063;stroke-linecap:square;stroke-linejoin:round"
       d="M 0,0 V 377.95312 A 377.95276,377.95276 0 0 1 377.69336,0 Z M 377.95312,0 A 377.95276,377.95276 0 0 1 755.90625,377.69336 V 0 Z M 755.90625,377.95312 A 377.95276,377.95276 0 0 1 378.21094,755.90625 H 755.90625 Z M 0,378.21094 V 755.90625 H 377.95312 A 377.95276,377.95276 0 0 1 0,378.21094 Z"
       transform="scale(0.26458333)"
       inkscape:connector-curvature="0" />
  </g>
</svg>
